<svg width="120px" height="120px" viewBox="0 0 120 120" version="1.1" xmlns="http://www.w3.org/2000/svg" xmlns:xlink="http://www.w3.org/1999/xlink">
    <g id="Page-1" stroke="none" stroke-width="1" fill="none" fill-rule="evenodd">
        <g id="icon-feed-dashboard-to-pay">
            <circle id="BG-Copy" fill="#FADCCC" fill-rule="nonzero" cx="60" cy="60" r="60"></circle>
            <g id="20px-/-Communication-/-Notification-/-Black" transform="translate(39.600000, 39.600000)">
                <rect id="Footprint" x="0" y="0" width="41.148" height="41.148"></rect>
                <path d="M35.2041714,8.09240208 L27.5547582,18.2827043 C27.4724622,18.2168675 27.404568,18.1386863 27.3202146,18.0749069 L23.6004354,15.2562689 L31.2066432,5.10094248 C32.0357754,4.00640568 33.6117438,3.78420648 34.6918788,4.58042028 C35.3317302,5.07213888 35.69589,5.81486028 35.69589,6.61313148 C35.69589,7.15011288 35.5251258,7.66240548 35.2041714,8.09240208 M27.1288764,28.2919553 C26.0610858,30.8102129 25.3718568,32.9889995 25.0467876,34.8735779 C22.9029768,34.0012403 19.4691762,32.3080001 15.5313126,29.2548185 C11.6366544,26.5020173 9.083421,23.6195999 7.6597002,21.7453085 C9.4907862,20.9449799 11.5440714,19.7228843 13.8689334,18.0563903 C15.8687262,16.6203251 18.8210952,16.7972615 21.047202,18.4843295 L24.8348754,21.3544025 C27.1309338,23.0949629 28.0979118,26.0123561 27.1288764,28.2919553 M14.19606,37.0235609 C11.9288052,37.0235609 10.08126,35.1760157 10.08126,32.9087609 C10.08126,32.1290063 10.3219758,31.3945145 10.719054,30.7587779 C11.4514884,31.3595387 12.2374152,31.9644143 13.0830066,32.5610603 C14.5746216,33.7173191 15.9983424,34.6884119 17.3294802,35.5134293 C16.5661848,36.4269149 15.4387296,37.0235609 14.19606,37.0235609 M39.81069,6.61313148 C39.81069,4.52692788 38.8581138,2.59708668 37.1710458,1.29886729 C34.2639396,-0.85934531 30.1223934,-0.26681411 27.9209754,2.62177548 L19.8415656,13.4066663 C16.9509186,12.6001655 13.8545316,13.0034159 11.470005,14.7131153 C7.6473558,17.4556295 5.3019198,18.3711725 4.0078152,18.6571511 L1.33731,19.2455675 L2.6417016,21.6465533 C2.7301698,21.8111453 4.2608754,24.5742335 7.6370688,27.9648287 C6.5754504,29.3679755 5.96646,31.0961915 5.96646,32.9087609 C5.96646,37.4473853 9.6574356,41.1383609 14.19606,41.1383609 C16.942689,41.1383609 19.4691762,39.7331567 20.9710782,37.5461405 C24.1806222,39.1365107 26.2915146,39.6549755 26.4355326,39.6878939 L29.1183822,40.3174583 L28.9599624,37.5667145 C28.8570924,35.7808913 29.5154604,33.2009117 30.9186072,29.9008421 C32.0728086,27.1809593 31.755969,24.1092611 30.284928,21.4984205 L38.4960114,10.5612821 C39.358062,9.41325288 39.81069,8.04919668 39.81069,6.61313148" id="Icon" fill="#17120F" fill-rule="nonzero"></path>
            </g>
        </g>
    </g>
</svg>