<svg width="120px" height="120px" viewBox="0 0 120 120" version="1.1" xmlns="http://www.w3.org/2000/svg" xmlns:xlink="http://www.w3.org/1999/xlink">
    <g id="Page-1" stroke="none" stroke-width="1" fill="none" fill-rule="evenodd">
        <g id="icon-feed-dashboard-deliveries">
            <g id="Group-4" fill="#A2B2D2" fill-rule="nonzero">
                <g id="Group">
                    <g id="Group-7">
                        <circle id="BG-Copy" cx="60" cy="60" r="60"></circle>
                    </g>
                </g>
            </g>
            <g id="20px-/-Shopping-&amp;-Tracking-/-Delivery-/-Black" transform="translate(40.000000, 40.000000)">
                <rect id="Footprint" x="0" y="0" width="40.2935517" height="40.2935517"></rect>
                <path d="M30.2241931,36.2641966 L10.0733879,36.2641966 L10.0733879,28.2054862 L30.2201638,28.2054862 L30.2241931,36.2641966 Z M20.1467759,4.02935517 C25.3829229,4.02935517 29.8514778,6.99898993 31.5095574,11.0908001 C27.7400957,9.95653663 23.3984655,10.4279712 20.1467759,12.4668249 C16.8930716,10.4279712 12.553456,9.96056599 8.78600895,11.0847561 C10.448118,6.99697526 14.9126435,4.02935517 20.1467759,4.02935517 L20.1467759,4.02935517 Z M18.1320983,23.0136621 L9.71880468,15.0294948 C12.4829423,14.1208752 15.7507494,14.4694144 18.1320983,16.0025841 L18.1320983,23.0136621 Z M22.1614534,16.0025841 C24.538773,14.4714291 27.8025507,14.1188605 30.5707177,15.0355388 L22.1614534,23.0136621 L22.1614534,16.0025841 Z M36.2641966,15.184625 L36.2480791,14.2981668 C36.1090664,6.41473343 28.8884619,0 20.1467759,0 C11.4050898,0 4.18448535,6.41473343 4.04547259,14.2981668 L4.02935517,15.184625 L13.5084132,24.176131 L6.04403276,24.176131 L6.04403276,36.2641966 C6.04403276,38.4863859 7.85321323,40.2935517 10.0733879,40.2935517 L30.2201638,40.2935517 C32.4423532,40.2935517 34.249519,38.4863859 34.249519,36.2641966 L34.249519,24.176131 L26.7851385,24.176131 L36.2641966,15.184625 Z" id="Icon" fill="#17120F" fill-rule="nonzero"></path>
            </g>
        </g>
    </g>
</svg>