<?xml version="1.0" encoding="UTF-8"?>
<!-- Generator: Adobe Illustrator 23.0.1, SVG Export Plug-In . SVG Version: 6.00 Build 0)  -->
<svg preserveAspectRatio="xMidYMid slice" xmlns="http://www.w3.org/2000/svg" xmlns:xlink="http://www.w3.org/1999/xlink" width="480px" height="240px" id="Layer_1" x="0px" y="0px" viewBox="0 0 960 480" style="enable-background:new 0 0 960 480;" xml:space="preserve">
<style type="text/css">
	.st0{fill:#FFFFFF;}
	.st1{fill-rule:evenodd;clip-rule:evenodd;fill:#E2DDE5;}
	.st2{fill:none;stroke:#442358;stroke-width:12;stroke-linecap:round;}
	.st3{fill:#8247B5;}
</style>
<title>bank_4</title>
<g>
	<g id="Layer_11">
		<rect class="st0" width="960" height="480"></rect>
	</g>
	<g id="online_copy_2">
		<path id="Rectangle-2" class="st1" d="M394.4,322.5l-55.8-1V203.1L394.4,322.5L394.4,322.5"></path>
		<path id="Rectangle-2-2" class="st1" d="M578.4,322.5l-55.7-1V203.1L578.4,322.5L578.4,322.5"></path>
		<path class="st2" d="M338.6,324.7V203.1"></path>
		<path class="st2" d="M367,329.7V203.1"></path>
		<path class="st2" d="M395.3,316.1v-113"></path>
		<path class="st2" d="M522.2,324.7L522.2,324.7"></path>
		<path class="st2" d="M550.5,324.7V203.1"></path>
		<path class="st2" d="M578.9,324.7V203.1"></path>
		<path class="st2" d="M522.2,324.7L522.2,324.7"></path>
		<rect x="284.3" y="343.7" class="st2" width="348.1" height="9.9"></rect>
		<rect x="312" y="333.7" class="st2" width="292.7" height="9.9"></rect>
		<rect x="330.1" y="324.7" class="st2" width="256.6" height="9.9"></rect>
		<path class="st2" d="M507.8,144.8l76,44.6c1.8,1.2,2.9,3.2,2.9,5.4l0,0c0,3.5-2.9,6.4-6.4,6.4c0,0-0.1,0-0.1,0H336.4    c-3.5,0-6.3-2.8-6.3-6.3l0,0c0-2.2,1.2-4.3,3.1-5.4l78.1-44.4"></path>
		<circle id="Oval-2" class="st3" cx="458.4" cy="127.7" r="29.7"></circle>
		<path class="st2" d="M522.7,327.1V205.5"></path>
	</g>
</g>
</svg>
