<svg xmlns="http://www.w3.org/2000/svg" viewBox="0 0 284 133"><switch><g><path d="M148.8 101c0-2.1 1.8-2.6 3.6-2.8 1.7-.2 2.3-.2 2.3-.8 0-1.1-.6-1.7-1.8-1.7-1.2 0-1.9.6-2.2 1.3l-1.7-.4c.6-1.7 2.2-2.4 3.8-2.4 1.5 0 3.6.5 3.6 3.2v6.2h-1.8v-1.3h-.1c-.3.7-1.2 1.5-2.7 1.5-1.6 0-3-1-3-2.8zm5.9-.8V99c-.3.3-1.7.4-2.2.5-1 .1-1.9.5-1.9 1.5 0 .9.7 1.4 1.8 1.4 1.5-.1 2.3-1.1 2.3-2.2zm4.5-9h2l2.4 9.6h.1l2.5-9.6h1.9l2.5 9.6h.1l2.4-9.6h2l-3.4 12.4h-1.9l-2.6-9.3h-.1l-2.6 9.3h-1.9l-3.4-12.4zm16.2 7.8c0-2.9 1.7-4.8 4.3-4.8 2.6 0 4.3 1.9 4.3 4.8s-1.7 4.8-4.3 4.8c-2.5 0-4.3-1.9-4.3-4.8zm6.9 0c0-1.8-.8-3.3-2.5-3.3s-2.5 1.5-2.5 3.3c0 1.8.8 3.3 2.5 3.3s2.5-1.5 2.5-3.3zm3.8-4.7h1.7v1.5h.1c.3-1 1.3-1.6 2.4-1.6h.8v1.7c-.1 0-.6-.1-.9-.1-1.3 0-2.2.9-2.2 2.1v5.7h-1.8v-9.3zm8.4 9.3h-1.8V91.2h1.8v12.4zm2-4.6c0-3 1.7-4.8 3.9-4.8 1.7 0 2.3 1.1 2.7 1.6h.1v-4.6h1.8v12.4h-1.8v-1.4h-.2c-.3.6-1 1.6-2.7 1.6-2.1 0-3.8-1.8-3.8-4.8zm6.8-.1c0-1.9-.8-3.2-2.4-3.2-1.6 0-2.5 1.4-2.5 3.2 0 1.9.8 3.3 2.5 3.3 1.5 0 2.4-1.3 2.4-3.3zm6.1 4.7h-1.8V91.2h1.8v12.4zm2.3-11.8c0-.6.5-1.1 1.1-1.1.6 0 1.1.5 1.1 1.1 0 .6-.5 1.1-1.1 1.1-.6 0-1.1-.5-1.1-1.1zm.2 2.5h1.8v9.3h-1.8v-9.3zm6 9.3h-1.8v-9.3h1.7v1.5h.1c.4-1 1.3-1.6 2.7-1.6 1.9 0 3.2 1.2 3.2 3.5v5.9H222v-5.7c0-1.4-.7-2.2-2-2.2s-2.2.8-2.2 2.3v5.6zm8-4.6c0-2.9 1.7-4.8 4.3-4.8 2.1 0 4.1 1.3 4.1 4.7v.6h-6.6c0 1.8 1.1 2.8 2.6 2.8 1 0 1.8-.4 2.1-1.3l1.7.3c-.4 1.5-1.8 2.5-3.9 2.5-2.6 0-4.3-1.9-4.3-4.8zm6.6-.9c0-1.4-.9-2.5-2.3-2.5-1.5 0-2.4 1.1-2.5 2.5h4.8zm5.1-6.9h1.8v4.6h.1c.3-.6.9-1.6 2.7-1.6 2.2 0 3.9 1.8 3.9 4.8s-1.6 4.8-3.9 4.8c-1.7 0-2.4-1-2.7-1.6h-.2v1.4h-1.8V91.2zm4.2 11c1.6 0 2.5-1.4 2.5-3.3 0-1.8-.8-3.2-2.5-3.2-1.6 0-2.4 1.3-2.4 3.2 0 2 .9 3.3 2.4 3.3zm6.3-7.9h1.7v1.5h.1c.3-1 1.3-1.6 2.4-1.6h.8v1.7c-.1 0-.6-.1-.9-.1-1.3 0-2.2.9-2.2 2.1v5.7h-1.8v-9.3zm6.1 6.7c0-2.1 1.8-2.6 3.6-2.8 1.7-.2 2.3-.2 2.3-.8 0-1.1-.6-1.7-1.8-1.7-1.2 0-1.9.6-2.2 1.3l-1.7-.4c.6-1.7 2.2-2.4 3.8-2.4 1.5 0 3.6.5 3.6 3.2v6.2H260v-1.3h-.1c-.3.7-1.2 1.5-2.7 1.5-1.6 0-3-1-3-2.8zm5.9-.8V99c-.3.3-1.7.4-2.2.5-1 .1-1.9.5-1.9 1.5 0 .9.7 1.4 1.8 1.4 1.4-.1 2.3-1.1 2.3-2.2zm6 3.4h-1.8v-9.3h1.7v1.5h.1c.4-1 1.3-1.6 2.7-1.6 1.9 0 3.2 1.2 3.2 3.5v5.9h-1.8v-5.7c0-1.4-.7-2.2-2-2.2s-2.2.8-2.2 2.3v5.6zm8-4.6c0-3 1.7-4.8 3.9-4.8 1.7 0 2.3 1.1 2.7 1.6h.1v-4.6h1.8v12.4h-1.8v-1.4h-.2c-.3.6-1 1.6-2.7 1.6-2.1 0-3.8-1.8-3.8-4.8zm6.7-.1c0-1.9-.8-3.2-2.4-3.2-1.6 0-2.5 1.4-2.5 3.2 0 1.9.8 3.3 2.5 3.3 1.6 0 2.4-1.3 2.4-3.3z" fill="#41b4d2"/><path d="M39 61.2c0 10.5-8 18.5-17.5 18.5-3.9 0-7-1-9.7-2.7 0 0-5.9 1.8-11.8 1.8V31c5.9 0 11.8-1.8 11.8-1.8v16.4c2.6-1.7 5.8-2.7 9.7-2.7C31 42.9 39 50.7 39 61.2zm-11.6 0c0-4.8-3.5-8.7-8.3-8.7-2.6 0-5.2.8-7.3 3.3v10.9c2.2 2.5 4.7 3.3 7.3 3.3 4.8 0 8.3-3.9 8.3-8.8zm153.4 0c0 10.5-8 18.5-17.5 18.5-3.9 0-7-1-9.7-2.7 0 0-5.9 1.8-11.8 1.8V31c5.9 0 11.8-1.8 11.8-1.8v16.4c2.6-1.7 5.8-2.7 9.7-2.7 9.5 0 17.5 7.8 17.5 18.3zm-11.6 0c0-4.8-3.5-8.7-8.3-8.7-2.6 0-5.2.8-7.3 3.3v10.9c2.2 2.5 4.7 3.3 7.3 3.3 4.9 0 8.3-3.9 8.3-8.8zm50.8-.1c0 10.8-8 18.8-19.1 18.8-11.1 0-19.1-8-19.1-18.8 0-10.6 8-18.4 19.1-18.4 11.1 0 19.1 7.8 19.1 18.4zm-11.1.1c0-4.6-3.2-8.3-7.9-8.3-4.8 0-8 3.7-8 8.3 0 4.7 3.2 8.5 8 8.5 4.7 0 7.9-3.8 7.9-8.5zm24.3-17.7v3.8c3.1-2.7 6.9-4.4 12.1-4.4v11.2c-5.7.2-9.4 1.7-12.1 4.5v20.1h-11.8V45.4c6 0 11.8-1.9 11.8-1.9zM93 45.7c-5.9 0-11.8-1.8-11.8-1.8v35H93V56.3c1.7-2.3 3.5-3.1 5.3-3.1 3.9 0 6.3 2.4 6.3 7.4v18.2h11.8V58.7c0-.9-.1-1.7-.1-2.6 1.7-2.1 3.6-2.9 5.4-2.9 3.9 0 6.3 2.4 6.3 7.4v18.2h11.8V58.7c0-10-6.3-16.2-14.7-16.2-5.2 0-8.8 1.5-12.5 4.7-2.6-3.1-6.4-4.7-10.8-4.7-3.9 0-6.4 1.1-8.8 3.2zM78.9 78.8c-5.9 0-11.8-2-11.8-2-2.6 1.7-5.8 2.7-9.7 2.7-9.5 0-17.5-7.9-17.5-18.4 0-10.5 8-18.4 17.5-18.4 3.9 0 7 1 9.7 2.7 5.9 0 11.8-1.9 11.8-1.9v35.3zM67.1 66.6V55.7c-2.2-2.5-4.7-3.3-7.3-3.3-4.8 0-8.3 3.9-8.3 8.8s3.5 8.7 8.3 8.7c2.6 0 5.1-.8 7.3-3.3zM284 78.8c-5.9 0-11.8-2-11.8-2-2.6 1.7-5.8 2.7-9.7 2.7-9.5 0-17.5-7.9-17.5-18.4 0-10.5 8-18.4 17.5-18.4 3.9 0 7 1 9.7 2.7 5.9 0 11.8-1.9 11.8-1.9v35.3zm-11.8-12.2V55.7c-2.2-2.5-4.7-3.3-7.3-3.3-4.8 0-8.3 3.9-8.3 8.8s3.5 8.7 8.3 8.7c2.6 0 5.1-.8 7.3-3.3z" fill="#4a4f55"/></g></switch></svg>