<?xml version="1.0" encoding="UTF-8"?>
<svg preserveAspectRatio="xMidYMid slice" xmlns="http://www.w3.org/2000/svg" width="480px" height="240px" viewBox="0 0 960 480">
  <defs>
    <style>.cls-1,.cls-5{fill:#fff;}.cls-2{fill:#e2dde5;}.cls-2,.cls-5{fill-rule:evenodd;}.cls-3{fill:none;stroke:#442358;stroke-linecap:round;stroke-width:12px;}.cls-4{fill:#442358;}.cls-6{fill:#8247b5;}</style>
  </defs>
  <title>2_tre_enkla_steg</title>
  <g id="Layer_2" data-name="Layer 2">
    <g id="Layer_11" data-name="Layer 11">
      <rect class="cls-1" width="960" height="480"></rect>
    </g>
    <g id="online_copy" data-name="online copy">
      <path id="Rectangle" class="cls-2" d="M329.3,377.2l9.2,20.3,29.9,12H573.6s17.9-13.8,24.6-18.3c3.6-2.5,3.8-16,3.9-17.5l1.2-14.7,2.1-194.9Z"></path>
      <path class="cls-3" d="M603.3,166.8v203c0,21.9-14.6,39.7-32.7,39.7H362c-18.1,0-32.7-17.8-32.7-39.7V116.4c0-21.9,14.6-39.7,32.7-39.7H538.2"></path>
      <circle class="cls-4" cx="466.3" cy="243.1" r="64.9"></circle>
      <path class="cls-5" d="M505.5,213.4a6.6,6.6,0,0,1-.9,3.3l-36.5,59.5-.9,1.1h-.1a1,1,0,0,1-.5.4l-.4.4H466l-.5.2a3.4,3.4,0,0,1-1.5.6h-.6a2,2,0,0,1-1.1,0h-1a6.2,6.2,0,0,1-3.3-1.7l-29.1-29.1a6.5,6.5,0,0,1,0-9.1,6.8,6.8,0,0,1,4.6-1.9,6.5,6.5,0,0,1,4.5,1.9l23.4,23.4L493.6,210a6.6,6.6,0,0,1,8.9-2.1A6.3,6.3,0,0,1,505.5,213.4Z"></path>
      <ellipse id="Oval-2" class="cls-6" cx="587.3" cy="112.7" rx="35.9" ry="35.8"></ellipse>
    </g>
  </g>
</svg>
